<svg xmlns="http://www.w3.org/2000/svg" viewBox="0 0 34.48 27.93"><defs><style>.cls-1{fill:#686868;}</style></defs><title>navigator</title><g id="Layer_2" data-name="Layer 2"><g id="Layer_1-2" data-name="Layer 1"><g id="visible"><path id="_Compound_Path_" data-name="&lt;Compound Path&gt;" class="cls-1" d="M5.44,11.3s10.8,13.46,24,0C16.24-1.94,5.44,11.3,5.44,11.3Zm11.89,4.64a4.56,4.56,0,1,1,4.56-4.55A4.55,4.55,0,0,1,17.33,15.94Z"/><path id="_Path_" data-name="&lt;Path&gt;" class="cls-1" d="M17.33,9.62a1.77,1.77,0,1,0,1.78,1.77A1.77,1.77,0,0,0,17.33,9.62Z"/></g><g id="monitor"><path id="_Compound_Path_2" data-name="&lt;Compound Path&gt;" class="cls-1" d="M34.48,1.25A1.25,1.25,0,0,0,33.23,0h-32A1.25,1.25,0,0,0,0,1.25V26.67a1.25,1.25,0,0,0,1.25,1.26h32a1.25,1.25,0,0,0,1.25-1.26Zm-17,24.84A1.53,1.53,0,1,1,19,24.56,1.52,1.52,0,0,1,17.43,26.09Zm15.62-5H1.42V1.71H33.05Z"/></g></g></g></svg>