<svg xmlns="http://www.w3.org/2000/svg" viewBox="0 0 28.34 34.98"><defs><style>.cls-1{fill:none;}.cls-2{fill:#48a9e1;}.cls-3{fill:#303030;}</style></defs><title>Asset 1</title><g id="Layer_2" data-name="Layer 2"><g id="Layer_1-2" data-name="Layer 1"><path class="cls-1" d="M10.61,5.58a4.76,4.76,0,0,0-2.18,4V14H19.87V9.55C19.4,5.59,14.9,2.86,10.61,5.58Z"/><path class="cls-2" d="M15.47,27.14V24.68a2.46,2.46,0,0,0,1.2-2.11,2.55,2.55,0,0,0-4.11-2,1.09,1.09,0,0,0-.37.37,2.56,2.56,0,0,0,.68,3.72v2.46Z"/><path class="cls-3" d="M3.11,35H25.23a3.11,3.11,0,0,0,3-2.35H.1A3.11,3.11,0,0,0,3.11,35Z"/><path class="cls-2" d="M0,31.86a3.18,3.18,0,0,0,.1.77H28.24a3.18,3.18,0,0,0,.1-.77v-.49H0Z"/><path class="cls-3" d="M24.39,10.22c0-7.36-7.81-12.92-15.57-8.84A9.24,9.24,0,0,0,4,9.57V14h-2A1.94,1.94,0,0,0,0,15.94V31.37H28.34V15.94A1.94,1.94,0,0,0,26.4,14H24.33V10.22ZM15.47,24.68v2.46h-2.6V24.68A2.56,2.56,0,0,1,12.19,21a1.09,1.09,0,0,1,.37-.37,2.55,2.55,0,0,1,4.11,2A2.46,2.46,0,0,1,15.47,24.68ZM19.87,14H8.43V9.59a4.76,4.76,0,0,1,2.18-4c4.29-2.72,8.79,0,9.26,4Z"/></g></g></svg>